<svg width="171" height="50" viewBox="0 0 171 50" fill="none" xmlns="http://www.w3.org/2000/svg">
<path d="M30.1539 10.9369C28.0617 12.5344 29.185 15.3191 32.4928 16.7353C36.1847 18.3166 42.8053 18.7581 42.8367 17.4256C42.8818 15.566 45.1741 10.9688 46.9011 9.27586C49.1069 7.11356 50.0561 6.84322 50.4867 8.25184C50.6895 8.91515 49.4212 10.6369 47.4138 12.4243C44.0771 15.395 43.535 16.5027 45.203 16.9442C46.4374 17.2707 50.6186 13.5244 52.2126 10.6643C53.8908 7.65311 53.4743 5.6934 51.0557 5.21235C47.984 4.60167 44.731 6.98015 42.2637 11.6412L39.9909 15.9348L36.7494 15.5165C33.163 15.0536 30.4362 13.1479 32.4701 12.5261C33.1187 12.3278 34.7982 12.5507 36.2026 13.0221C39.534 14.1406 40.7568 12.8518 37.9156 11.2184C35.202 9.65859 31.9808 9.54194 30.1539 10.9369Z" fill="white"/>
<path d="M30.0038 22.0703C29.1001 23.0529 29.3358 24.4108 31.8252 32.5534L34.3319 40.7526V40.7526C34.5418 41.4392 35.1754 41.9082 35.8934 41.9085L41.4745 41.9106C46.6272 41.9127 49.1821 41.9781 50.1189 40.7791C51.0748 39.5557 50.3462 37.0162 48.9739 31.7505L46.7767 23.3191C46.7252 23.1213 46.7992 22.912 46.9637 22.7906L49.917 20.6119C51.6911 19.3029 53.8783 17.9795 54.7778 17.6712C56.3898 17.1173 56.4413 17.2134 58.458 24.5364L60.4069 31.6131C60.4645 31.8222 60.3806 32.0447 60.1993 32.1638L57.3759 34.0177C54.5924 35.8448 53.8283 37.429 55.3404 38.2372C55.9837 38.5802 62.4749 34.3855 63.3991 33.0301C63.8789 32.3263 63.2674 29.3668 61.3429 23.0719C57.924 11.8893 57.876 11.8642 49.9735 17.2069C46.9508 19.25 44.1728 21.3793 43.7996 21.9378C43.333 22.6383 43.8733 25.4116 45.5354 30.848C46.8629 35.19 47.704 38.8126 47.4036 38.8981C47.1034 38.9843 44.7271 39.0656 42.122 39.0789L38.1083 39.0996C37.6769 39.1018 37.2928 38.8271 37.1553 38.4183L34.891 31.6836L32.5935 24.852C32.4919 24.55 32.695 24.2313 33.0116 24.1958L35.2909 23.94C36.8824 23.7614 38.5071 23.5749 38.9013 23.525C39.2949 23.4753 39.5691 22.8439 39.5099 22.1224C39.431 21.1482 38.5724 20.8378 36.1739 20.9164C34.3977 20.9746 32.5169 21.0036 31.9932 20.982C31.47 20.9595 30.5745 21.4491 30.0038 22.0703Z" fill="#F9C225"/>
<path fill-rule="evenodd" clip-rule="evenodd" d="M27.75 39.8115C22.175 39.707 22 39.7281 22 40.5042C22 41.2804 22.175 41.3014 27.75 41.1969C32.5531 41.1069 33.5 40.9927 33.5 40.5042C33.5 40.0158 32.5531 39.9015 27.75 39.8115Z" fill="white"/>
<path d="M25.1251 36.2014C18.6587 36.2014 17.5405 36.0158 18.1426 35.0414C18.2872 34.8075 21.0463 34.6548 25.1251 34.6548C31.6108 34.6548 31.8687 34.6842 31.8687 35.4281C31.8687 36.172 31.6108 36.2014 25.1251 36.2014Z" fill="white"/>
<path d="M22.5151 25.9609C16.5797 26.0711 15.6401 25.8839 16.1016 24.6819C16.3106 24.137 17.1558 24.0671 22.3772 24.1615C28.1112 24.2651 28.4111 24.3097 28.4111 25.0608C28.4111 25.8108 28.1112 25.8566 22.5151 25.9609Z" fill="white"/>
<path d="M24.0499 19.3874C23.9188 19.7288 24.0553 20.1666 24.3528 20.3606C24.6506 20.5541 25.9414 20.6674 27.2214 20.6123C29.3034 20.5223 29.5617 20.4199 29.6726 19.6392C29.7909 18.8045 29.6765 18.7665 27.0422 18.7665C24.8748 18.7665 24.2372 18.8987 24.0499 19.3874Z" fill="white"/>
<path d="M26.5 31.1547C23.6217 31.1547 23 30.9707 23 30.119C23 29.54 23.288 29.488 26.5 29.488C29.712 29.488 30 29.54 30 30.119C30 30.9707 29.3783 31.1547 26.5 31.1547Z" fill="white"/>
<path d="M68.952 38.7666C68.5707 38.7666 68.25 38.6366 67.99 38.3766C67.73 38.1166 67.6 37.7959 67.6 37.4146V19.8126C67.6 19.4139 67.73 19.0933 67.99 18.8506C68.25 18.5906 68.5707 18.4606 68.952 18.4606C69.472 18.4606 69.8707 18.7033 70.148 19.1886L78.286 35.4906H77.454L85.384 19.1886C85.6613 18.7033 86.06 18.4606 86.58 18.4606C86.9613 18.4606 87.282 18.5906 87.542 18.8506C87.802 19.0933 87.932 19.4139 87.932 19.8126V37.4146C87.932 37.7959 87.7933 38.1166 87.516 38.3766C87.256 38.6366 86.944 38.7666 86.58 38.7666C86.1987 38.7666 85.878 38.6366 85.618 38.3766C85.358 38.1166 85.228 37.7959 85.228 37.4146V23.5566L85.748 23.4266L78.936 37.3106C78.6413 37.7613 78.2513 37.9866 77.766 37.9866C77.194 37.9866 76.778 37.7179 76.518 37.1806L69.784 23.6866L70.304 23.5566V37.4146C70.304 37.7959 70.174 38.1166 69.914 38.3766C69.654 38.6366 69.3333 38.7666 68.952 38.7666ZM95.431 45.0066C95.2576 45.0066 95.0496 44.9546 94.807 44.8506C94.0443 44.5039 93.8363 43.9579 94.183 43.2126L102.113 25.2986C102.46 24.5706 103.006 24.3626 103.751 24.6746C104.531 25.0039 104.748 25.5499 104.401 26.3126L96.445 44.2006C96.237 44.7379 95.899 45.0066 95.431 45.0066ZM98.499 38.1946C98.1696 38.3333 97.8576 38.3506 97.563 38.2466C97.2856 38.1253 97.0603 37.8999 96.887 37.5706L90.933 26.2606C90.7596 25.9313 90.7336 25.6193 90.855 25.3246C90.9936 25.0126 91.2276 24.7873 91.557 24.6486C91.8863 24.5099 92.1983 24.5013 92.493 24.6226C92.7876 24.7266 93.013 24.9433 93.169 25.2726L98.863 36.5826C99.0363 36.9119 99.097 37.2326 99.045 37.5446C99.0103 37.8393 98.8283 38.0559 98.499 38.1946Z" fill="#F9C225"/>
<path d="M113.347 38.8706C111.995 38.8706 110.773 38.5586 109.681 37.9346C108.606 37.2933 107.748 36.4266 107.107 35.3346C106.483 34.2426 106.171 33.0119 106.171 31.6426C106.171 30.2733 106.457 29.0513 107.029 27.9766C107.618 26.8846 108.415 26.0266 109.421 25.4026C110.426 24.7613 111.561 24.4406 112.827 24.4406C113.849 24.4406 114.794 24.6573 115.661 25.0906C116.527 25.5066 117.255 26.0786 117.845 26.8066V19.7866C117.845 19.3879 117.966 19.0673 118.209 18.8246C118.469 18.5819 118.789 18.4606 119.171 18.4606C119.569 18.4606 119.89 18.5819 120.133 18.8246C120.375 19.0673 120.497 19.3879 120.497 19.7866V31.6426C120.497 33.0119 120.176 34.2426 119.535 35.3346C118.911 36.4266 118.061 37.2933 116.987 37.9346C115.912 38.5586 114.699 38.8706 113.347 38.8706ZM113.347 36.5306C114.231 36.5306 115.019 36.3226 115.713 35.9066C116.406 35.4733 116.952 34.8839 117.351 34.1386C117.749 33.3933 117.949 32.5613 117.949 31.6426C117.949 30.7066 117.749 29.8746 117.351 29.1466C116.952 28.4186 116.406 27.8466 115.713 27.4306C115.019 26.9973 114.231 26.7806 113.347 26.7806C112.48 26.7806 111.691 26.9973 110.981 27.4306C110.287 27.8466 109.733 28.4186 109.317 29.1466C108.918 29.8746 108.719 30.7066 108.719 31.6426C108.719 32.5613 108.918 33.3933 109.317 34.1386C109.733 34.8839 110.287 35.4733 110.981 35.9066C111.691 36.3226 112.48 36.5306 113.347 36.5306ZM131.108 38.8706C129.843 38.8706 128.707 38.5586 127.702 37.9346C126.697 37.2933 125.899 36.4353 125.31 35.3606C124.738 34.2686 124.452 33.0379 124.452 31.6686C124.452 30.2993 124.764 29.0686 125.388 27.9766C126.029 26.8846 126.887 26.0266 127.962 25.4026C129.054 24.7613 130.276 24.4406 131.628 24.4406C132.98 24.4406 134.193 24.7613 135.268 25.4026C136.343 26.0266 137.192 26.8846 137.816 27.9766C138.457 29.0686 138.778 30.2993 138.778 31.6686H137.764C137.764 33.0379 137.469 34.2686 136.88 35.3606C136.308 36.4353 135.519 37.2933 134.514 37.9346C133.509 38.5586 132.373 38.8706 131.108 38.8706ZM131.628 36.5306C132.512 36.5306 133.301 36.3226 133.994 35.9066C134.687 35.4733 135.233 34.8926 135.632 34.1646C136.031 33.4193 136.23 32.5873 136.23 31.6686C136.23 30.7326 136.031 29.9006 135.632 29.1726C135.233 28.4273 134.687 27.8466 133.994 27.4306C133.301 26.9973 132.512 26.7806 131.628 26.7806C130.761 26.7806 129.973 26.9973 129.262 27.4306C128.569 27.8466 128.014 28.4273 127.598 29.1726C127.199 29.9006 127 30.7326 127 31.6686C127 32.5873 127.199 33.4193 127.598 34.1646C128.014 34.8926 128.569 35.4733 129.262 35.9066C129.973 36.3226 130.761 36.5306 131.628 36.5306ZM137.452 38.7926C137.071 38.7926 136.75 38.6713 136.49 38.4286C136.247 38.1686 136.126 37.8479 136.126 37.4666V33.4886L136.62 30.7326L138.778 31.6686V37.4666C138.778 37.8479 138.648 38.1686 138.388 38.4286C138.145 38.6713 137.833 38.7926 137.452 38.7926ZM145.273 45.0066C145.099 45.0066 144.891 44.9546 144.649 44.8506C143.886 44.5039 143.678 43.9579 144.025 43.2126L151.955 25.2986C152.301 24.5706 152.847 24.3626 153.593 24.6746C154.373 25.0039 154.589 25.5499 154.243 26.3126L146.287 44.2006C146.079 44.7379 145.741 45.0066 145.273 45.0066ZM148.341 38.1946C148.011 38.3333 147.699 38.3506 147.405 38.2466C147.127 38.1253 146.902 37.8999 146.729 37.5706L140.775 26.2606C140.601 25.9313 140.575 25.6193 140.697 25.3246C140.835 25.0126 141.069 24.7873 141.399 24.6486C141.728 24.5099 142.04 24.5013 142.335 24.6226C142.629 24.7266 142.855 24.9433 143.011 25.2726L148.705 36.5826C148.878 36.9119 148.939 37.2326 148.887 37.5446C148.852 37.8393 148.67 38.0559 148.341 38.1946Z" fill="white"/>
</svg>
