<svg width="171" height="50" viewBox="0 0 171 50" fill="none" xmlns="http://www.w3.org/2000/svg">
<path d="M101.176 37.6093C100.83 37.6093 100.54 37.4915 100.304 37.2559C100.068 37.0204 99.9507 36.7298 99.9507 36.3843V20.4369C99.9507 20.0757 100.068 19.7852 100.304 19.5653C100.54 19.3298 100.83 19.212 101.176 19.212C101.537 19.212 101.827 19.3298 102.047 19.5653C102.283 19.7852 102.401 20.0757 102.401 20.4369V27.1975H111.519V20.4369C111.519 20.0757 111.636 19.7852 111.872 19.5653C112.107 19.3298 112.398 19.212 112.743 19.212C113.105 19.212 113.395 19.3298 113.615 19.5653C113.835 19.7852 113.945 20.0757 113.945 20.4369V36.3843C113.945 36.7298 113.835 37.0204 113.615 37.2559C113.395 37.4915 113.105 37.6093 112.743 37.6093C112.398 37.6093 112.107 37.4915 111.872 37.2559C111.636 37.0204 111.519 36.7298 111.519 36.3843V29.3646H102.401V36.3843C102.401 36.7298 102.283 37.0204 102.047 37.2559C101.827 37.4915 101.537 37.6093 101.176 37.6093Z" fill="white"/>
<path fill-rule="evenodd" clip-rule="evenodd" d="M118.896 36.8555C119.806 37.4208 120.835 37.7035 121.981 37.7035C123.128 37.7035 124.157 37.4208 125.067 36.8555C125.629 36.4974 126.115 36.0648 126.528 35.5576V32.8274L126.975 30.3304L128.93 31.1785C128.93 29.9379 128.64 28.8229 128.059 27.8335C127.493 26.8442 126.724 26.0668 125.75 25.5015C124.777 24.9204 123.677 24.6299 122.452 24.6299C121.228 24.6299 120.121 24.9204 119.131 25.5015C118.157 26.0668 117.38 26.8442 116.799 27.8335C116.234 28.8229 115.951 29.9379 115.951 31.1785C115.951 32.419 116.21 33.5341 116.728 34.5234C117.262 35.4971 117.985 36.2744 118.896 36.8555ZM124.596 35.0181C123.968 35.395 123.253 35.5834 122.452 35.5834C121.667 35.5834 120.953 35.395 120.309 35.0181C119.681 34.6255 119.178 34.0994 118.801 33.4398C118.44 32.7646 118.26 32.0108 118.26 31.1785C118.26 30.3304 118.44 29.5767 118.801 28.9171C119.178 28.2418 119.681 27.7157 120.309 27.3388C120.953 26.9462 121.667 26.7499 122.452 26.7499C123.253 26.7499 123.968 26.9462 124.596 27.3388C125.225 27.7157 125.719 28.2418 126.08 28.9171C126.442 29.5767 126.622 30.3304 126.622 31.1785C126.622 32.0108 126.442 32.7646 126.08 33.4398C125.719 34.0994 125.225 34.6255 124.596 35.0181Z" fill="white"/>
<path d="M128.93 31.1785H128.012C128.012 32.419 127.745 33.5341 127.211 34.5234C127.012 34.897 126.784 35.2418 126.528 35.5576V36.4315C126.528 36.7769 126.638 37.0675 126.857 37.303C127.093 37.5229 127.384 37.6328 127.729 37.6328C128.075 37.6328 128.358 37.5229 128.577 37.303C128.813 37.0675 128.93 36.7769 128.93 36.4315V31.1785Z" fill="white"/>
<path fill-rule="evenodd" clip-rule="evenodd" d="M132.802 43.1214C132.456 43.1214 132.166 43.0036 131.93 42.768C131.71 42.5481 131.6 42.2655 131.6 41.92V31.1785C131.616 29.9379 131.907 28.8229 132.472 27.8335C133.037 26.8442 133.806 26.0668 134.78 25.5015C135.754 24.9204 136.853 24.6299 138.078 24.6299C139.318 24.6299 140.426 24.9204 141.4 25.5015C142.374 26.0668 143.143 26.8442 143.708 27.8335C144.289 28.8229 144.58 29.9379 144.58 31.1785C144.58 32.419 144.312 33.5341 143.779 34.5234C143.261 35.4971 142.546 36.2744 141.635 36.8555C140.725 37.4208 139.695 37.7035 138.549 37.7035C137.622 37.7035 136.767 37.515 135.982 37.1381C135.213 36.7456 134.553 36.2194 134.003 35.5599V41.92C134.003 42.2655 133.893 42.5481 133.673 42.768C133.453 43.0036 133.163 43.1214 132.802 43.1214ZM140.222 35.0181C139.594 35.395 138.879 35.5834 138.078 35.5834C137.293 35.5834 136.579 35.395 135.935 35.0181C135.307 34.6255 134.812 34.0994 134.451 33.4398C134.089 32.7646 133.909 32.0108 133.909 31.1785C133.909 30.3304 134.089 29.5767 134.451 28.9171C134.812 28.2418 135.307 27.7157 135.935 27.3388C136.579 26.9462 137.293 26.7499 138.078 26.7499C138.879 26.7499 139.594 26.9462 140.222 27.3388C140.85 27.7157 141.344 28.2418 141.706 28.9171C142.083 29.5767 142.271 30.3304 142.271 31.1785C142.271 32.0108 142.083 32.7646 141.706 33.4398C141.344 34.0994 140.85 34.6255 140.222 35.0181Z" fill="white"/>
<path fill-rule="evenodd" clip-rule="evenodd" d="M148.458 43.1214C148.113 43.1214 147.822 43.0036 147.587 42.768C147.367 42.5481 147.257 42.2655 147.257 41.92V31.1785C147.273 29.9379 147.563 28.8229 148.128 27.8335C148.694 26.8442 149.464 26.0668 150.437 25.5015C151.411 24.9204 152.51 24.6299 153.735 24.6299C154.976 24.6299 156.083 24.9204 157.056 25.5015C158.03 26.0668 158.799 26.8442 159.365 27.8335C159.946 28.8229 160.236 29.9379 160.236 31.1785C160.236 32.419 159.97 33.5341 159.435 34.5234C158.917 35.4971 158.203 36.2744 157.292 36.8555C156.381 37.4208 155.353 37.7035 154.206 37.7035C153.28 37.7035 152.424 37.515 151.638 37.1381C150.869 36.7456 150.21 36.2194 149.66 35.5599V41.92C149.66 42.2655 149.55 42.5481 149.33 42.768C149.111 43.0036 148.82 43.1214 148.458 43.1214ZM155.878 35.0181C155.251 35.395 154.536 35.5834 153.735 35.5834C152.95 35.5834 152.235 35.395 151.591 35.0181C150.963 34.6255 150.469 34.0994 150.107 33.4398C149.747 32.7646 149.565 32.0108 149.565 31.1785C149.565 30.3304 149.747 29.5767 150.107 28.9171C150.469 28.2418 150.963 27.7157 151.591 27.3388C152.235 26.9462 152.95 26.7499 153.735 26.7499C154.536 26.7499 155.251 26.9462 155.878 27.3388C156.507 27.7157 157.002 28.2418 157.362 28.9171C157.739 29.5767 157.928 30.3304 157.928 31.1785C157.928 32.0108 157.739 32.7646 157.362 33.4398C157.002 34.0994 156.507 34.6255 155.878 35.0181Z" fill="white"/>
<path d="M163.445 37.6093C163.099 37.6093 162.809 37.4994 162.574 37.2795C162.354 37.0439 162.244 36.7534 162.244 36.4079V25.9255C162.244 25.5643 162.354 25.2738 162.574 25.0539C162.809 24.834 163.099 24.7241 163.445 24.7241C163.806 24.7241 164.097 24.834 164.317 25.0539C164.536 25.2738 164.647 25.5643 164.647 25.9255V36.4079C164.647 36.7534 164.536 37.0439 164.317 37.2795C164.097 37.4994 163.806 37.6093 163.445 37.6093Z" fill="white"/>
<path d="M163.445 22.6276C163.021 22.6276 162.652 22.4784 162.338 22.1801C162.039 21.866 161.891 21.4969 161.891 21.0729C161.891 20.6489 162.039 20.2877 162.338 19.9894C162.652 19.6753 163.021 19.5182 163.445 19.5182C163.869 19.5182 164.23 19.6753 164.529 19.9894C164.842 20.2877 165 20.6489 165 21.0729C165 21.4969 164.842 21.866 164.529 22.1801C164.23 22.4784 163.869 22.6276 163.445 22.6276Z" fill="white"/>
<path fill-rule="evenodd" clip-rule="evenodd" d="M46.8548 37.8448C45.8497 37.8448 44.8918 37.6878 43.981 37.3737C43.0701 37.0596 42.2771 36.6199 41.6018 36.0546C40.9265 35.4892 40.4319 34.8375 40.1178 34.0994C39.9607 33.7696 39.9607 33.4634 40.1178 33.1807C40.2905 32.898 40.5732 32.7175 40.9658 32.6389C41.2485 32.5761 41.5233 32.6233 41.7903 32.7803C42.0729 32.9216 42.2849 33.1415 42.4263 33.4398C42.6147 33.8324 42.9209 34.1936 43.345 34.5234C43.7847 34.8532 44.3108 35.1202 44.9232 35.3243C45.5357 35.5284 46.1795 35.6305 46.8548 35.6305C47.6086 35.6305 48.2996 35.5128 48.9277 35.2772C49.5716 35.0416 50.0899 34.704 50.4824 34.2643C50.875 33.8089 51.0713 33.2514 51.0713 32.5918C51.0713 31.7595 50.7415 31.0136 50.082 30.354C49.4381 29.6944 48.3702 29.2861 46.8784 29.1291C44.9311 28.9406 43.3999 28.3674 42.2849 27.4095C41.1699 26.4516 40.6125 25.2659 40.6125 23.8525C40.6125 22.8161 40.903 21.9366 41.484 21.2143C42.0651 20.4919 42.8503 19.9422 43.8396 19.5653C44.8447 19.1884 45.9597 19 47.1846 19C48.1425 19 48.9748 19.1335 49.6815 19.4005C50.4039 19.6674 51.0321 20.0365 51.566 20.5076C52.0999 20.9787 52.5632 21.5362 52.9558 22.1801C53.1757 22.5255 53.262 22.8553 53.2149 23.1694C53.1835 23.4678 53.0344 23.7033 52.7674 23.8761C52.469 24.0645 52.147 24.1038 51.8016 23.9939C51.4561 23.884 51.197 23.6798 51.0242 23.3814C50.773 22.926 50.4668 22.5413 50.1055 22.2272C49.7443 21.9131 49.3203 21.6697 48.8335 21.4969C48.3467 21.3085 47.7735 21.2143 47.1139 21.2143C45.9518 21.1986 44.9782 21.4184 44.193 21.8738C43.4078 22.3135 43.0152 22.9967 43.0152 23.9232C43.0152 24.3943 43.1329 24.8497 43.3685 25.2895C43.6198 25.7135 44.0673 26.0825 44.7112 26.3966C45.3708 26.7107 46.313 26.9305 47.5379 27.0562C49.4067 27.2446 50.8593 27.8178 51.8958 28.7757C52.9479 29.718 53.474 30.9665 53.474 32.5212C53.474 33.4163 53.2856 34.1936 52.9087 34.8532C52.5475 35.5128 52.0528 36.0702 51.4247 36.5257C50.8122 36.9654 50.1055 37.2951 49.3046 37.515C48.5194 37.7349 47.7028 37.8448 46.8548 37.8448ZM62.143 37.7035C60.8396 37.7035 59.6775 37.4287 58.6567 36.879C57.6517 36.3137 56.8586 35.5442 56.2776 34.5705C55.7122 33.5812 55.4296 32.4505 55.4296 31.1785C55.4296 29.8908 55.6966 28.7601 56.2305 27.7864C56.7801 26.797 57.5339 26.0275 58.4918 25.4779C59.4497 24.9126 60.5491 24.6299 61.7897 24.6299C63.0146 24.6299 64.0667 24.9047 64.9462 25.4543C65.8256 25.9883 66.493 26.7342 66.9484 27.6922C67.4196 28.6344 67.6551 29.7259 67.6551 30.9665C67.6551 31.2648 67.553 31.5161 67.3489 31.7202C67.1448 31.9087 66.8857 32.0029 66.5715 32.0029H57.6138C57.7006 32.5399 57.8755 33.0346 58.1385 33.4869C58.5311 34.1622 59.0729 34.6962 59.7639 35.0888C60.4549 35.4813 61.2479 35.6777 62.143 35.6777C62.6298 35.6777 63.1245 35.5913 63.627 35.4185C64.1453 35.2301 64.5614 35.0181 64.8755 34.7825C65.1111 34.6098 65.3623 34.5234 65.6293 34.5234C65.912 34.5077 66.1554 34.5862 66.3595 34.759C66.6265 34.9945 66.7679 35.2537 66.7836 35.5363C66.7992 35.819 66.6737 36.0624 66.4067 36.2666C65.8727 36.6906 65.2053 37.036 64.4044 37.303C63.6192 37.57 62.8654 37.7035 62.143 37.7035ZM58.0443 28.87C57.856 29.2554 57.7215 29.6716 57.6407 30.1184H65.486C65.4167 29.5958 65.276 29.1169 65.064 28.6815C64.7656 28.0534 64.3416 27.5587 63.7919 27.1975C63.2423 26.8363 62.5749 26.6557 61.7897 26.6557C60.8945 26.6557 60.1251 26.852 59.4812 27.2446C58.8531 27.6372 58.3741 28.179 58.0443 28.87ZM80.6965 37.6328C80.351 37.6328 80.0604 37.5229 79.8249 37.303C79.6051 37.0675 79.4951 36.7769 79.4951 36.4315V30.6367C79.4951 29.7415 79.3302 29.0113 79.0004 28.446C78.6706 27.8806 78.2231 27.4645 77.6577 27.1975C77.1082 26.9148 76.4721 26.7735 75.7497 26.7735C75.0901 26.7735 74.4934 26.907 73.9594 27.1739C73.4255 27.4409 73.0015 27.8021 72.6874 28.2575C72.3734 28.6972 72.2163 29.2076 72.2163 29.7887V36.4315C72.2163 36.7769 72.1064 37.0675 71.8865 37.303C71.6667 37.5229 71.3762 37.6328 71.0149 37.6328C70.6695 37.6328 70.3789 37.5229 70.1434 37.303C69.9236 37.0675 69.8136 36.7769 69.8136 36.4315V25.9255C69.8136 25.5643 69.9236 25.2738 70.1434 25.0539C70.3789 24.834 70.6695 24.7241 71.0149 24.7241C71.3762 24.7241 71.6667 24.834 71.8865 25.0539C72.1064 25.2738 72.2163 25.5643 72.2163 25.9255V26.1756C72.566 25.8317 72.9664 25.5364 73.4176 25.2895C74.25 24.834 75.1844 24.6063 76.2208 24.6063C77.3044 24.6063 78.2702 24.8419 79.1182 25.313C79.982 25.7684 80.6572 26.4437 81.144 27.3388C81.6466 28.234 81.8978 29.3332 81.8978 30.6367V36.4315C81.8978 36.7769 81.78 37.0675 81.5445 37.303C81.3247 37.5229 81.042 37.6328 80.6965 37.6328ZM90.8062 37.7035C89.5813 37.7035 88.4742 37.4208 87.4849 36.8555C86.5112 36.2744 85.7338 35.4892 85.1528 34.4999C84.5875 33.5105 84.3048 32.3955 84.3048 31.1549C84.3048 29.9143 84.5639 28.8072 85.0821 27.8335C85.616 26.8442 86.3385 26.0668 87.2493 25.5015C88.1601 24.9204 89.1888 24.6299 90.3351 24.6299C91.2617 24.6299 92.1175 24.8262 92.9027 25.2188C93.688 25.5957 94.3475 26.1139 94.8814 26.7735V20.4134C94.8814 20.0522 94.9913 19.7616 95.2112 19.5418C95.4468 19.3219 95.7373 19.212 96.0828 19.212C96.444 19.212 96.7345 19.3219 96.9544 19.5418C97.1742 19.7616 97.2841 20.0522 97.2841 20.4134V31.1549C97.2841 32.3955 96.9936 33.5105 96.4126 34.4999C95.8472 35.4892 95.0778 36.2744 94.1041 36.8555C93.1304 37.4208 92.0312 37.7035 90.8062 37.7035ZM90.8062 35.5834C91.6072 35.5834 92.3217 35.395 92.9498 35.0181C93.578 34.6255 94.0726 34.0915 94.4339 33.4163C94.7951 32.741 94.9757 31.9872 94.9757 31.1549C94.9757 30.3069 94.7951 29.5531 94.4339 28.8935C94.0726 28.234 93.578 27.7157 92.9498 27.3388C92.3217 26.9462 91.6072 26.7499 90.8062 26.7499C90.021 26.7499 89.3065 26.9462 88.6627 27.3388C88.0345 27.7157 87.532 28.234 87.1551 28.8935C86.7938 29.5531 86.6133 30.3069 86.6133 31.1549C86.6133 31.9872 86.7938 32.741 87.1551 33.4163C87.532 34.0915 88.0345 34.6255 88.6627 35.0181C89.3065 35.395 90.021 35.5834 90.8062 35.5834Z" fill="#F9C225"/>
<path d="M128.012 31.1785H128.93L126.975 30.3304L126.528 32.8274V35.5576C126.784 35.2418 127.012 34.897 127.211 34.5234C127.745 33.5341 128.012 32.419 128.012 31.1785Z" fill="white"/>
<path d="M10.7218 6.26554C8.25393 7.18151 8.51402 10.173 11.2632 12.4944C14.3314 15.086 20.5337 17.4439 20.9533 16.1788C21.5401 14.4137 25.0763 10.6875 27.2229 9.5735C29.9645 8.1506 30.9512 8.16957 30.9512 9.64256C30.9512 10.3362 29.2349 11.6119 26.7927 12.7342C22.7332 14.5996 21.8909 15.5004 23.357 16.4103C24.442 17.0834 29.5358 14.7233 31.8963 12.4542C34.3816 10.0653 34.5563 8.0694 32.384 6.90224C29.625 5.42014 25.8188 6.74363 22.0966 10.4796L18.6677 13.9211L15.6901 12.5734C12.3958 11.0822 10.3453 8.4625 12.4722 8.4625C13.1504 8.4625 14.6913 9.16674 15.8966 10.0281C18.7554 12.0717 20.3016 11.1968 18.062 8.804C15.923 6.519 12.8767 5.46567 10.7218 6.26554Z" fill="white"/>
<path d="M7.32317 16.8686C6.17164 17.544 6 18.9115 6 27.4262L5.99999 36V36C6 36.7179 6.46878 37.3517 7.15526 37.5619L12.4919 39.1957C17.4188 40.7042 19.843 41.5137 21.0894 40.641C22.3612 39.7506 22.4069 37.109 22.6341 31.6721L22.9981 22.9667C23.0066 22.7625 23.1386 22.584 23.3314 22.516L26.7927 21.2959C28.872 20.5629 31.3504 19.9368 32.3009 19.9049C34.0043 19.8465 34.0255 19.9535 33.8131 27.5461L33.6077 34.8834C33.6017 35.1003 33.4564 35.2885 33.2482 35.3493L30.0061 36.2968C26.8101 37.2302 25.6162 38.5218 26.826 39.7368C27.3409 40.2528 34.7748 38.1393 36.0549 37.1133C36.7195 36.5806 37 33.5716 37 26.9891C37 15.2955 36.9614 15.2575 27.8421 18.0563C24.3543 19.1263 21.0751 20.3504 20.5549 20.7754C19.9039 21.3089 19.6098 24.119 19.6098 29.8038C19.6098 34.3442 19.355 38.0543 19.0427 38.0483C18.7304 38.043 16.4341 37.426 13.939 36.677L10.0947 35.5233C9.68148 35.3993 9.39439 35.0243 9.38248 34.5931L9.1862 27.4907L8.98637 20.2859C8.97754 19.9674 9.26492 19.722 9.57814 19.7806L11.8325 20.2024C13.4067 20.4968 15.015 20.7936 15.4066 20.8611C15.7975 20.9287 16.2444 20.405 16.3986 19.6977C16.608 18.7431 15.8777 18.1952 13.561 17.5691C11.8454 17.1054 10.0383 16.5833 9.54383 16.4095C9.0501 16.235 8.05054 16.4414 7.32317 16.8686Z" fill="#F9C225"/>
</svg>
